<?xml version="1.0" encoding="UTF-8"?>
<!DOCTYPE svg PUBLIC "-//W3C//DTD SVG 1.1//EN" "http://www.w3.org/Graphics/SVG/1.1/DTD/svg11.dtd">
<!-- Creator: CorelDRAW 2021 (64-Bit) -->
<svg xmlns="http://www.w3.org/2000/svg" xml:space="preserve" width="155px" height="58px" version="1.1" style="shape-rendering:geometricPrecision; text-rendering:geometricPrecision; image-rendering:optimizeQuality; fill-rule:evenodd; clip-rule:evenodd"
viewBox="0 0 155 57.89"
 xmlns:xlink="http://www.w3.org/1999/xlink"
 xmlns:xodm="http://www.corel.com/coreldraw/odm/2003">
 <defs>
  <style type="text/css">
   <![CDATA[
    .fil1 {fill:white}
    .fil0 {fill:white;fill-rule:nonzero}
   ]]>
  </style>
 </defs>
 <g id="Layer_x0020_1">
  <metadata id="CorelCorpID_0Corel-Layer"/>
  <g id="_1585053125792">
   <polygon class="fil0" points="41.08,57.41 29.76,57.41 10.83,28.74 10.83,57.41 -0.5,57.41 -0.5,10.93 10.83,10.93 29.76,39.73 29.76,10.93 41.08,10.93 "/>
   <path id="_1" class="fil0" d="M112.06 47.81l0 9.6 -5.76 0c-4.1,0 -7.3,-1 -9.6,-3.01 -2.29,-2.01 -3.44,-5.29 -3.44,-9.83l0 -14.7 -4.5 0 0 -9.4 4.5 0 0 -9.01 11.32 0 0 9.01 7.42 0 0 9.4 -7.42 0 0 14.83c0,1.1 0.27,1.9 0.8,2.38 0.53,0.49 1.41,0.73 2.65,0.73l4.03 0z"/>
   <path id="_2" class="fil0" d="M135.17 57.94c-3.62,0 -6.87,-0.77 -9.76,-2.32 -2.89,-1.54 -5.17,-3.75 -6.82,-6.62 -1.66,-2.87 -2.49,-6.22 -2.49,-10.06 0,-3.8 0.84,-7.14 2.52,-10.03 1.68,-2.89 3.97,-5.11 6.89,-6.66 2.91,-1.54 6.18,-2.32 9.79,-2.32 3.62,0 6.89,0.78 9.8,2.32 2.92,1.55 5.21,3.77 6.89,6.66 1.68,2.89 2.52,6.23 2.52,10.03 0,3.79 -0.85,7.14 -2.55,10.03 -1.7,2.89 -4.02,5.11 -6.96,6.65 -2.93,1.55 -6.21,2.32 -9.83,2.32zm0 -9.8c2.17,0 4.01,-0.79 5.53,-2.38 1.52,-1.59 2.29,-3.86 2.29,-6.82 0,-2.96 -0.74,-5.23 -2.22,-6.82 -1.48,-1.59 -3.3,-2.38 -5.47,-2.38 -2.2,0 -4.03,0.78 -5.49,2.35 -1.46,1.56 -2.19,3.85 -2.19,6.85 0,2.96 0.72,5.23 2.16,6.82 1.43,1.59 3.23,2.38 5.39,2.38z"/>
   <path id="_3" class="fil0" d="M66.11 57.94c-3.62,0 -6.87,-0.77 -9.76,-2.32 -2.89,-1.54 -5.17,-3.75 -6.82,-6.62 -1.66,-2.87 -2.49,-6.22 -2.49,-10.06 0,-3.8 0.84,-7.14 2.52,-10.03 1.68,-2.89 3.97,-5.11 6.89,-6.66 2.91,-1.54 6.17,-2.32 9.79,-2.32 3.62,0 6.89,0.78 9.8,2.32 2.92,1.55 5.21,3.77 6.89,6.66 1.68,2.89 2.52,6.23 2.52,10.03 0,3.79 -0.85,7.14 -2.55,10.03 -1.7,2.89 -4.02,5.11 -6.96,6.65 -2.93,1.55 -6.21,2.32 -9.83,2.32zm0 -9.8c2.16,0 4.01,-0.79 5.53,-2.38 1.52,-1.59 2.28,-3.86 2.28,-6.82 0,-2.96 -0.73,-5.23 -2.21,-6.82 -1.48,-1.59 -3.3,-2.38 -5.47,-2.38 -2.2,0 -4.03,0.78 -5.49,2.35 -1.46,1.56 -2.19,3.85 -2.19,6.85 0,2.96 0.72,5.23 2.16,6.82 1.43,1.59 3.23,2.38 5.39,2.38z"/>
   <path class="fil1" d="M49.38 0.05c0,0 0.1,10.02 15.49,14.36 15.4,4.34 19.14,-7.74 19.14,-7.74 0,0 -14.95,8.13 -34.63,-6.62z"/>
  </g>
 </g>
</svg>
